<svg xmlns="http://www.w3.org/2000/svg" viewBox="0 0 55.96 56.26"><title>Collaborate</title><polygon points="42.92 2.36 42.93 2.36 42.92 1.86 42.92 2.36 42.92 2.36" style="fill:none"/><path d="M6.79,27.89l0-9.11a9.29,9.29,0,0,0-1.28,3.09A7.21,7.21,0,0,0,6.79,27.89Z" style="fill:none"/><path d="M9.32,5.8a2.73,2.73,0,0,0,1.6,2.48l.58.27v4l-.86.12A6.72,6.72,0,0,0,7.7,13.72a13.37,13.37,0,0,0-4.14,6.71,8.6,8.6,0,0,0,1.73,7.25l.24.05a7.76,7.76,0,0,1-1-6.07A10.24,10.24,0,0,1,6,18.25l1.85-2.94v3.47l0,9.12v3.2L7.71,54.63h1l.06-19.45V33.83l1.29.4a3.41,3.41,0,0,0,.95.14h1.84a3.36,3.36,0,0,0,1-.14l1.3-.39V35.2l-.06,19.45h1l.08-24.13,0-8.44V18.6l1.84,3a8.23,8.23,0,0,0,7.24,4.1,7.75,7.75,0,0,0,1-.07l-.58-.87A11.46,11.46,0,0,1,21.32,23c-2.83-1.89-3.7-5-4.22-6.8l-.08-.3v-.1c0-.12-.63-3.09-3.28-3.09h-.13l-1,0V8.55l.59-.27a2.71,2.71,0,0,0-1.1-5.19v0A2.73,2.73,0,0,0,9.32,5.8Z" style="fill:none"/><path d="M49.33,21.68a7.31,7.31,0,0,0-1.26-3.1l0,9.12A7.22,7.22,0,0,0,49.33,21.68Z" style="fill:none"/><path d="M26.27,25.59a7.75,7.75,0,0,1-1,.07A8.23,8.23,0,0,1,18,21.56l-1.84-3v3.49l0,8.44-.08,24.13h-1l.06-19.45V33.85l-1.3.39a3.36,3.36,0,0,1-1,.14H11a3.41,3.41,0,0,1-.95-.14l-1.29-.4v1.35L8.73,54.63h-1L7.78,31.1V27.9l0-9.12V15.31L6,18.25a10.24,10.24,0,0,0-1.42,3.41,7.76,7.76,0,0,0,1,6.07l-.24-.05a8.6,8.6,0,0,1-1.73-7.25A13.37,13.37,0,0,1,7.7,13.72a6.72,6.72,0,0,1,2.93-1.08l.86-.12v-4l-.58-.27A2.71,2.71,0,0,1,12,3.09v-1a3.72,3.72,0,0,0-1.54,7.1v2.46A7.89,7.89,0,0,0,7.1,12.91a14.35,14.35,0,0,0-4.52,7.32,9.65,9.65,0,0,0,2.18,8.36l2,.42V31.1L6.71,55.63h3l.06-20.46a3.92,3.92,0,0,0,1.24.19h1.85a4.16,4.16,0,0,0,1.23-.18l-.06,20.45h3l.08-25.12,0-8.45A9.49,9.49,0,0,0,19.87,25a9.63,9.63,0,0,0,5.39,1.65,9.77,9.77,0,0,0,2.87-.43,8.34,8.34,0,0,1-1.74-.45ZM6.79,27.89a7.21,7.21,0,0,1-1.25-6,9.29,9.29,0,0,1,1.28-3.09Z" style="fill:#19c4d1"/><path d="M14.76,5.81a2.71,2.71,0,0,1-1.61,2.47l-.59.27V12.7l1,0h.13c2.65,0,3.25,3,3.28,3.09v.1l.08.3c.52,1.84,1.39,4.91,4.22,6.8a11.46,11.46,0,0,0,4.37,1.77l-.79-1.21a10.54,10.54,0,0,1-3-1.39c-2.68-1.79-3.41-4.87-3.89-6.55,0,0-.71-3.91-4.26-3.91h-.17V9.2a3.72,3.72,0,0,0-1.51-7.11h0v1A2.72,2.72,0,0,1,14.76,5.81Z" style="fill:#19c4d1"/><path d="M52.29,20.06a15.8,15.8,0,0,0-4.62-7.69,7.21,7.21,0,0,0-3.24-.94V9a3.72,3.72,0,0,0-1.51-7.11h0v1A2.72,2.72,0,0,1,44,8.06l-.59.26v4l.86.12.29,0a5.76,5.76,0,0,1,2.48.71,14.79,14.79,0,0,1,4.25,7.09,8.65,8.65,0,0,1-1.77,7.23l-.24.05a7.79,7.79,0,0,0,1-6.06A8.12,8.12,0,0,0,48.85,18l-1.77-2.24v2.86l0,9.11v3.63h0L47,54.43h-1L46,35V33.62L44.7,34a3.31,3.31,0,0,1-1,.14H41.91A3.29,3.29,0,0,1,41,34l-1.3-.4V35L39.61,54.4h-1l.07-23.53,0-9V18.34l-1.86,3a8.32,8.32,0,0,1-2.42,2.59,8.51,8.51,0,0,1-4.79,1.45A8.77,8.77,0,0,1,27,25l-.15-.23c.34,0,.7.05,1.09.05A10.53,10.53,0,0,0,33.86,23,12.85,12.85,0,0,0,38.67,16l0-.14v-.1c.59-2.54,1.45-3.13,2.8-3.33l.86-.12v-4l-.58-.27a2.71,2.71,0,0,1,1.12-5.19v-1A3.72,3.72,0,0,0,41.38,9v2.46c-2,.3-3,1.5-3.66,4.2v.08a11.84,11.84,0,0,1-4.4,6.51A9.6,9.6,0,0,1,28,23.78a9.84,9.84,0,0,1-3.25-.52l.17.25.79,1.21.58.87.12.19a8.34,8.34,0,0,0,1.74.45,11,11,0,0,0,1.5.11A9.62,9.62,0,0,0,35,24.73a9.37,9.37,0,0,0,2.72-2.9l0,9h0L37.59,55.4h3L40.67,35a4.23,4.23,0,0,0,1.24.19h1.86A4.5,4.5,0,0,0,45,35l-.06,20.45h3L48,30.9h0V28.81l2-.4A9.65,9.65,0,0,0,52.29,20.06Zm-4.22-1.48a7.31,7.31,0,0,1,1.26,3.1,7.22,7.22,0,0,1-1.29,6Z" style="fill:#9ad340"/></svg>