<svg xmlns="http://www.w3.org/2000/svg" viewBox="0 0 55.96 56.26"><title>DevelopSkills</title><path d="M24.31,49.78a1.21,1.21,0,0,1,.4-.91,1.33,1.33,0,0,1,.95-.39,1.31,1.31,0,0,1,.95.39,1.29,1.29,0,0,1,0,1.87,1.37,1.37,0,0,1-1,.38,1.3,1.3,0,0,1-.95-.39A1.31,1.31,0,0,1,24.31,49.78Zm.63,0a.72.72,0,1,0,.21-.5A.67.67,0,0,0,24.94,49.8Zm3.9-1.36.39.23L26,54.23l-.4-.24Zm-1,4.41a1.25,1.25,0,0,1,.4-.91,1.35,1.35,0,0,1,.95-.39,1.31,1.31,0,0,1,.95.4,1.21,1.21,0,0,1,.4.92,1.25,1.25,0,0,1-.4.94,1.34,1.34,0,0,1-1,.38,1.31,1.31,0,0,1-1-.39A1.3,1.3,0,0,1,27.85,52.85Zm.64,0a.73.73,0,0,0,.2.51.72.72,0,1,0,0-1A.67.67,0,0,0,28.49,52.87Z" style="fill:#19c4d1"/><path d="M37.92,18.68l-.31-.39a10.46,10.46,0,0,0,2.26-2.54,6.07,6.07,0,0,0,.3-.55l-2.48-3a10,10,0,0,0-3.53,1.92c-.88.73-4.55,4-9,8S15.6,31,11.68,34.89a64,64,0,0,0-5.57,6A1.1,1.1,0,0,0,6,41l.36-.18c.55-.28,1.27-.7,2.11-1.22,1.69-1.06,3.87-2.54,6.28-4.24C19.59,32,25.32,27.7,29.85,24.26h0c3.93-3,7-5.34,7.75-6Z" style="fill:none"/><path d="M46,9l3,.29,1.26-3.53L49,6.79a1.57,1.57,0,0,1-.53,1,1.52,1.52,0,1,1-1.93-2.35,1.5,1.5,0,0,1,1-.34l.13,0,1.23-1-3.7.56-.29,3Z" style="fill:none"/><path d="M5.11,42.2A.64.64,0,0,1,4.83,42h0a.61.61,0,0,0,.29.2.93.93,0,0,0,.27,0,1.47,1.47,0,0,0,.29,0,1.54,1.54,0,0,1-.3,0A.93.93,0,0,1,5.11,42.2Z" style="fill:#19c4d1"/><path d="M7.82,38.84A25.08,25.08,0,0,0,6,41H6a1.1,1.1,0,0,1,.09-.14,64,64,0,0,1,5.57-6C15.6,31,20.78,26.17,25.2,22.13s8.08-7.29,9-8a10,10,0,0,1,3.53-1.92l2.48,3a6.07,6.07,0,0,1-.3.55,10.46,10.46,0,0,1-2.26,2.54l.31.39-.31-.39c-.78.64-3.82,3-7.75,6l.6.79C24.07,29.91,15.33,36.38,10,39.82a25.38,25.38,0,0,1-4,2.27l-.33.11A4,4,0,0,0,6.37,42a56.32,56.32,0,0,0,6.89-4.3c9.11-6.29,23.13-17.08,25-18.61h0a11.37,11.37,0,0,0,2.48-2.79,6.47,6.47,0,0,0,.47-.9l5-5.32,3.42.33,2.74-7.67L51,3.86,48,6.33l0,.26v0a.51.51,0,0,1-.19.39.52.52,0,0,1-.33.12.51.51,0,0,1-.4-.19.5.5,0,0,1,.07-.72.52.52,0,0,1,.33-.12l.15,0,.25.07,4.39-3.62L44.23,3.81l-.35,3.57L38,11.09a10.16,10.16,0,0,0-4.49,2.25c-.68.56-2.79,2.43-5.61,5-1.79,1.62-3.87,3.52-6,5.51l.67.72C17,29.63,11,35.37,7.82,38.84ZM45.2,9.67l-4.43,4.68L38.7,11.84,44.15,8.4Zm3.65-5.55-1.23,1-.13,0A1.52,1.52,0,0,0,46,6.64a1.53,1.53,0,0,0,2.49,1.17,1.57,1.57,0,0,0,.53-1l1.23-1L49,9.31,46,9l-1.1-1.34.29-3Z" style="fill:#19c4d1"/><path d="M4.83,42a.64.64,0,0,0,.28.19.93.93,0,0,0,.27,0,1.54,1.54,0,0,0,.3,0h0L6,42.09a25.38,25.38,0,0,0,4-2.27c5.3-3.44,14-9.91,20.43-14.76l-.6-.79h0C25.32,27.7,19.59,32,14.77,35.38c-2.41,1.7-4.59,3.18-6.28,4.24-.84.52-1.56.94-2.11,1.22L6,41H6a25.08,25.08,0,0,1,1.83-2.19C11,35.37,17,29.63,22.56,24.54l-.67-.72v0c-4,3.69-8.26,7.71-11.53,11-1.64,1.64-3,3.09-4,4.22a16.13,16.13,0,0,0-1.17,1.46,2.89,2.89,0,0,0-.34.56,1.22,1.22,0,0,0-.16.55.66.66,0,0,0,.15.43Z" style="fill:#9ad340"/><polygon points="25.15 44.25 25.15 45.46 0.2 45.46 0.2 44.25 0.19 44.25 0.19 45.48 55.17 45.48 55.17 44.25 25.15 44.25" style="fill:#19c4d1"/><polygon points="25.15 45.46 25.15 44.25 25.15 44.23 0.2 44.23 0.2 44.25 0.2 45.46 25.15 45.46" style="fill:#9ad340"/></svg>