<svg xmlns="http://www.w3.org/2000/svg" viewBox="0 0 55.96 56.26"><title>LocationIndependent</title><path d="M32.29,9.58H24A1.72,1.72,0,0,0,22.3,11.3v3.28H34V11.3A1.72,1.72,0,0,0,32.29,9.58Z" style="fill:none"/><path d="M21.3,11.3A2.72,2.72,0,0,1,24,8.58h8.26A2.72,2.72,0,0,1,35,11.3v3.28h1.8V9.84a3.48,3.48,0,0,0-3.48-3.48H23A3.48,3.48,0,0,0,19.5,9.84v4.74h1.8Z" style="fill:none"/><path d="M51.07,14.58H37.81V9.84a4.49,4.49,0,0,0-4.48-4.48H23A4.49,4.49,0,0,0,18.5,9.84v4.74H4.76A4.49,4.49,0,0,0,.28,19.06V49.5A4.49,4.49,0,0,0,4.76,54H51.07a4.49,4.49,0,0,0,4.48-4.48V19.06A4.49,4.49,0,0,0,51.07,14.58ZM54.55,49.5A3.48,3.48,0,0,1,51.07,53H4.76A3.48,3.48,0,0,1,1.28,49.5V19.06a3.48,3.48,0,0,1,3.48-3.48H51.07a3.48,3.48,0,0,1,3.48,3.48ZM34,14.58H22.3V11.3A1.72,1.72,0,0,1,24,9.58h8.26A1.72,1.72,0,0,1,34,11.3ZM19.5,9.84A3.48,3.48,0,0,1,23,6.36H33.33a3.48,3.48,0,0,1,3.48,3.48v4.74H35V11.3a2.72,2.72,0,0,0-2.72-2.72H24A2.72,2.72,0,0,0,21.3,11.3v3.28H19.5Z" style="fill:#19c4d1"/><path d="M47.54,28.85a1.14,1.14,0,0,0-.61-.63,1.17,1.17,0,0,0-.88,0L30.24,34.42a1.15,1.15,0,0,0-.65,1.49l3.35,8.53a1.15,1.15,0,0,0,1.07.72,1,1,0,0,0,.42-.08l15.81-6.21h0a1.16,1.16,0,0,0,.65-1.49Zm2.34,9.09L34.06,44.15a.17.17,0,0,1-.19-.08l-3.35-8.53a.15.15,0,0,1,.08-.19l15.82-6.22h0l.06,0a.15.15,0,0,1,.08.08L50,37.74A.16.16,0,0,1,49.88,37.94Z" style="fill:#9ad340"/><path d="M40.28,33.29,42,34.38A4.19,4.19,0,0,1,40,36a4.94,4.94,0,0,1-3.85-.41l-.61-.29-.55,4,.35.15a9.53,9.53,0,0,0,3.35.61,7.74,7.74,0,0,0,6.74-3.78l2.13,1.19-2.37-5.64Zm4.59,2.05a7.06,7.06,0,0,1-8.74,3.31l.26-1.87a5.55,5.55,0,0,0,4,.17,5.15,5.15,0,0,0,2.71-2.54l.18-.39-.62-.4,2-.59.9,2.14-.43-.25Z" style="fill:#9ad340"/><path d="M8.66,32.15l10.87,3.6L23,25.18l-10.86-3.6Zm13.1-6.34-2.87,8.68-9-3,2.87-8.68Z" style="fill:#9ad340"/><path d="M14.74,32.22a3.78,3.78,0,0,0,4.81-2.41,3.8,3.8,0,1,0-4.81,2.41Zm-1.46-4.49a2.81,2.81,0,0,1,2.66-1.92,3,3,0,0,1,.88.14,2.81,2.81,0,1,1-3.54,1.78Z" style="fill:#9ad340"/></svg>