<svg xmlns="http://www.w3.org/2000/svg" viewBox="0 0 55.96 56.26"><title>UseExpertise</title><path d="M27.91,35.33a2.87,2.87,0,0,1-3.55-.42l-3.22-3.23a2.89,2.89,0,0,1-.43-3.55L20,27.41a3.89,3.89,0,0,0,.44,5l.19.19L7.05,46.14l-2.62-.23L.27,52.62l3.29,3.29L10,51.75,9.92,49,23.47,35.43l.18.18a3.87,3.87,0,0,0,5,.44ZM9.22,48.27l-.31.3,0,.43L9,51.22,3.69,54.63,1.53,52.48,5,47l2,.18.47,0,.33-.33L21.22,33.39l1.44,1.44Z" style="fill:#19c4d1"/><path d="M28,20.69,46.45,2.26a2.91,2.91,0,0,1,4.11,0l3.22,3.23a2.9,2.9,0,0,1,0,4.1L35.35,28l.71.71L54.49,10.3a3.91,3.91,0,0,0,0-5.52L51.27,1.56a3.9,3.9,0,0,0-5.53,0L27.31,20Z" style="fill:#19c4d1"/><path d="M51.48,9a2.69,2.69,0,0,1,1.92.79l.71-.7A3.7,3.7,0,0,0,51.48,8a3.66,3.66,0,0,0-2.62,1.09L32.62,25.3l.71.7L49.56,9.77A2.71,2.71,0,0,1,51.48,9Z" style="fill:#19c4d1"/><path d="M48.15,4.82A3.71,3.71,0,0,0,47.07,2.2l-.71.71h0a2.72,2.72,0,0,1,0,3.83L30.21,22.89l.71.7L47.07,7.45A3.72,3.72,0,0,0,48.15,4.82Z" style="fill:#19c4d1"/><path d="M56,56.26,52.05,45h0l-.36-.94-.21.08L36.06,28.73,35.35,28l-2-2-.71-.7-1.7-1.71-.71-.7L28,20.69l-.71-.7L17.08,9.75l0,0L12,4.57l-.07-.09L8.43,1A3.48,3.48,0,0,0,3.51,1L1,3.51A3.48,3.48,0,0,0,1,8.43L4.48,11.9h0l1.75,1.76h0L20,27.41l.72.72,7.2,7.2.73.72L44.12,51.54l-.08.24.48.15,7.63,2.89v0ZM10.42,16.42l1.27-1.27L45.08,48.54l-.62,1.92ZM7.73,1.72l2.5,2.51-6,6L1.72,7.73a2.5,2.5,0,0,1,0-3.51l2.5-2.5a2.5,2.5,0,0,1,3.51,0ZM4.94,10.94l6-6L15.7,9.72l-6,6Zm9.35,1.61L47.64,45.9l-1.89,1.9L12.39,14.44ZM48.48,45.33,15,11.84l1.38-1.38L50.48,44.57ZM46,49l2.63-2.64,2.51-1,2.54,7.3a2.44,2.44,0,0,0-1.24,1.16l-7.13-2.69h0Z" style="fill:#9ad340"/></svg>